# xmcd CD database file
#
# Track frame offsets:
#	150
#	20403
#	37624
#	51277
#	66025
#	83440
#	103255
#	118231
#	133536
#	148457
#	164419
#	175059
#	189040
#	209449
#	223541
#	239009
#
# Disc length: 3488 seconds
#
# Revision: 0
# Processed by: cddbd v1.5.2PL0 Copyright (c) Steve Scherf et al.
# Submitted via: CDex 1.51
#
DISCID=e30d9e10
DTITLE=VÁRIOS - DIREITO DE VIVER 10
DYEAR=2011
DGENRE=SERTANEJO
TTITLE0=SOU UM ZÉ DA SILVA E OUTROS TANTOS
TTITLE1=UM POUCO DE ESPERANÇA
TTITLE2=NÃO BRINCA COM MEU CORAÇÃO
TTITLE3=AMOR NÃO VAI FALTAR
TTITLE4=TARDE DEMAIS
TTITLE5=VIAJANTE SOLITÁRIO
TTITLE6=UMA CANÇÃO PRA VOCÊ
TTITLE7=E VOCÊ AINDA DIZ QUE FUI EU
TTITLE8=A CASA CAIU
TTITLE9=PERIGO
TTITLE10=E DAÍ?
TTITLE11=GOSTO DE CAFÉ AMARGO
TTITLE12=FRIO DA MADRUGADA
TTITLE13=CHORA ME LIGA
TTITLE14=NÃO APRENDI DIZER ADEUS
TTITLE15=DIREITO DE VIVER
EXTD=YEAR: 2011
EXTT0=
EXTT1=
EXTT2=
EXTT3=
EXTT4=
EXTT5=
EXTT6=
EXTT7=
EXTT8=
EXTT9=
EXTT10=
EXTT11=
EXTT12=
EXTT13=
EXTT14=
EXTT15=
PLAYORDER=
